<mxfile host="app.diagrams.net" modified="2023-06-09T11:25:32.354Z" agent="Mozilla/5.0 (Windows NT 10.0; Win64; x64) AppleWebKit/537.36 (KHTML, like Gecko) Chrome/114.0.0.0 Safari/537.36 Edg/114.0.1823.41" etag="dkebcUYPe5XkWhUTsNww" version="21.3.8" type="github">
  <diagram name="第 1 页" id="fcfXm3zg49QDLHQ2pE_v">
    <mxGraphModel dx="1050" dy="549" grid="1" gridSize="10" guides="1" tooltips="1" connect="1" arrows="1" fold="1" page="1" pageScale="1" pageWidth="827" pageHeight="1169" math="0" shadow="0">
      <root>
        <mxCell id="0" />
        <mxCell id="1" parent="0" />
        <mxCell id="M_GYAB3L-xVHz7yTsTbz-63" value="" style="whiteSpace=wrap;html=1;aspect=fixed;fillColor=#ffe6cc;strokeColor=none;rounded=1;" vertex="1" parent="1">
          <mxGeometry x="290" y="154" width="115" height="115" as="geometry" />
        </mxCell>
        <mxCell id="M_GYAB3L-xVHz7yTsTbz-2" value="" style="whiteSpace=wrap;html=1;aspect=fixed;shadow=1;" vertex="1" parent="1">
          <mxGeometry x="180" y="130" width="30" height="30" as="geometry" />
        </mxCell>
        <mxCell id="M_GYAB3L-xVHz7yTsTbz-4" value="" style="whiteSpace=wrap;html=1;aspect=fixed;shadow=1;" vertex="1" parent="1">
          <mxGeometry x="180" y="203" width="30" height="30" as="geometry" />
        </mxCell>
        <mxCell id="M_GYAB3L-xVHz7yTsTbz-5" value="" style="whiteSpace=wrap;html=1;aspect=fixed;shadow=1;" vertex="1" parent="1">
          <mxGeometry x="180" y="166" width="30" height="30" as="geometry" />
        </mxCell>
        <mxCell id="M_GYAB3L-xVHz7yTsTbz-7" value="" style="whiteSpace=wrap;html=1;aspect=fixed;shadow=1;" vertex="1" parent="1">
          <mxGeometry x="180" y="280" width="30" height="30" as="geometry" />
        </mxCell>
        <mxCell id="M_GYAB3L-xVHz7yTsTbz-8" value="" style="whiteSpace=wrap;html=1;aspect=fixed;shadow=1;" vertex="1" parent="1">
          <mxGeometry x="180" y="353" width="30" height="30" as="geometry" />
        </mxCell>
        <mxCell id="M_GYAB3L-xVHz7yTsTbz-9" value="" style="whiteSpace=wrap;html=1;aspect=fixed;shadow=1;" vertex="1" parent="1">
          <mxGeometry x="180" y="316" width="30" height="30" as="geometry" />
        </mxCell>
        <mxCell id="M_GYAB3L-xVHz7yTsTbz-11" value="" style="endArrow=none;dashed=1;html=1;dashPattern=1 3;strokeWidth=2;rounded=0;" edge="1" parent="1">
          <mxGeometry width="50" height="50" relative="1" as="geometry">
            <mxPoint x="194.5" y="270" as="sourcePoint" />
            <mxPoint x="194.5" y="240" as="targetPoint" />
          </mxGeometry>
        </mxCell>
        <mxCell id="M_GYAB3L-xVHz7yTsTbz-12" value="" style="endArrow=classic;html=1;rounded=0;" edge="1" parent="1">
          <mxGeometry width="50" height="50" relative="1" as="geometry">
            <mxPoint x="230" y="250" as="sourcePoint" />
            <mxPoint x="280" y="250" as="targetPoint" />
          </mxGeometry>
        </mxCell>
        <mxCell id="M_GYAB3L-xVHz7yTsTbz-13" value="&lt;font style=&quot;font-size: 14px;&quot;&gt;reshape&lt;/font&gt;" style="text;html=1;align=center;verticalAlign=middle;resizable=0;points=[];autosize=1;strokeColor=none;fillColor=none;" vertex="1" parent="1">
          <mxGeometry x="220" y="218" width="70" height="30" as="geometry" />
        </mxCell>
        <mxCell id="M_GYAB3L-xVHz7yTsTbz-14" value="&lt;font style=&quot;font-size: 14px;&quot;&gt;pad&lt;/font&gt;" style="text;html=1;align=center;verticalAlign=middle;resizable=0;points=[];autosize=1;strokeColor=none;fillColor=none;" vertex="1" parent="1">
          <mxGeometry x="230" y="250" width="50" height="30" as="geometry" />
        </mxCell>
        <mxCell id="M_GYAB3L-xVHz7yTsTbz-15" value="" style="whiteSpace=wrap;html=1;aspect=fixed;shadow=1;" vertex="1" parent="1">
          <mxGeometry x="330" y="196" width="30" height="30" as="geometry" />
        </mxCell>
        <mxCell id="M_GYAB3L-xVHz7yTsTbz-16" value="" style="whiteSpace=wrap;html=1;aspect=fixed;shadow=1;" vertex="1" parent="1">
          <mxGeometry x="330" y="269" width="30" height="30" as="geometry" />
        </mxCell>
        <mxCell id="M_GYAB3L-xVHz7yTsTbz-17" value="" style="whiteSpace=wrap;html=1;aspect=fixed;shadow=1;" vertex="1" parent="1">
          <mxGeometry x="330" y="232" width="30" height="30" as="geometry" />
        </mxCell>
        <mxCell id="M_GYAB3L-xVHz7yTsTbz-18" value="" style="whiteSpace=wrap;html=1;aspect=fixed;shadow=1;" vertex="1" parent="1">
          <mxGeometry x="370" y="196" width="30" height="30" as="geometry" />
        </mxCell>
        <mxCell id="M_GYAB3L-xVHz7yTsTbz-19" value="" style="whiteSpace=wrap;html=1;aspect=fixed;shadow=1;" vertex="1" parent="1">
          <mxGeometry x="370" y="269" width="30" height="30" as="geometry" />
        </mxCell>
        <mxCell id="M_GYAB3L-xVHz7yTsTbz-20" value="" style="whiteSpace=wrap;html=1;aspect=fixed;shadow=1;" vertex="1" parent="1">
          <mxGeometry x="370" y="232" width="30" height="30" as="geometry" />
        </mxCell>
        <mxCell id="M_GYAB3L-xVHz7yTsTbz-21" value="" style="whiteSpace=wrap;html=1;aspect=fixed;shadow=1;" vertex="1" parent="1">
          <mxGeometry x="410" y="196" width="30" height="30" as="geometry" />
        </mxCell>
        <mxCell id="M_GYAB3L-xVHz7yTsTbz-22" value="" style="whiteSpace=wrap;html=1;aspect=fixed;shadow=1;" vertex="1" parent="1">
          <mxGeometry x="410" y="269" width="30" height="30" as="geometry" />
        </mxCell>
        <mxCell id="M_GYAB3L-xVHz7yTsTbz-23" value="" style="whiteSpace=wrap;html=1;aspect=fixed;shadow=1;" vertex="1" parent="1">
          <mxGeometry x="410" y="232" width="30" height="30" as="geometry" />
        </mxCell>
        <mxCell id="M_GYAB3L-xVHz7yTsTbz-27" value="" style="whiteSpace=wrap;html=1;aspect=fixed;shadow=1;dashed=1;" vertex="1" parent="1">
          <mxGeometry x="290" y="159" width="30" height="30" as="geometry" />
        </mxCell>
        <mxCell id="M_GYAB3L-xVHz7yTsTbz-28" value="" style="whiteSpace=wrap;html=1;aspect=fixed;shadow=1;dashed=1;" vertex="1" parent="1">
          <mxGeometry x="290" y="232" width="30" height="30" as="geometry" />
        </mxCell>
        <mxCell id="M_GYAB3L-xVHz7yTsTbz-29" value="" style="whiteSpace=wrap;html=1;aspect=fixed;shadow=1;dashed=1;" vertex="1" parent="1">
          <mxGeometry x="290" y="195" width="30" height="30" as="geometry" />
        </mxCell>
        <mxCell id="M_GYAB3L-xVHz7yTsTbz-30" value="" style="whiteSpace=wrap;html=1;aspect=fixed;shadow=1;dashed=1;" vertex="1" parent="1">
          <mxGeometry x="290" y="269" width="30" height="30" as="geometry" />
        </mxCell>
        <mxCell id="M_GYAB3L-xVHz7yTsTbz-31" value="" style="whiteSpace=wrap;html=1;aspect=fixed;shadow=1;dashed=1;" vertex="1" parent="1">
          <mxGeometry x="290" y="342" width="30" height="30" as="geometry" />
        </mxCell>
        <mxCell id="M_GYAB3L-xVHz7yTsTbz-32" value="" style="whiteSpace=wrap;html=1;aspect=fixed;shadow=1;dashed=1;" vertex="1" parent="1">
          <mxGeometry x="290" y="305" width="30" height="30" as="geometry" />
        </mxCell>
        <mxCell id="M_GYAB3L-xVHz7yTsTbz-33" value="" style="whiteSpace=wrap;html=1;aspect=fixed;shadow=1;dashed=1;" vertex="1" parent="1">
          <mxGeometry x="450" y="160" width="30" height="30" as="geometry" />
        </mxCell>
        <mxCell id="M_GYAB3L-xVHz7yTsTbz-34" value="" style="whiteSpace=wrap;html=1;aspect=fixed;shadow=1;" vertex="1" parent="1">
          <mxGeometry x="450" y="233" width="30" height="30" as="geometry" />
        </mxCell>
        <mxCell id="M_GYAB3L-xVHz7yTsTbz-35" value="" style="whiteSpace=wrap;html=1;aspect=fixed;shadow=1;" vertex="1" parent="1">
          <mxGeometry x="450" y="196" width="30" height="30" as="geometry" />
        </mxCell>
        <mxCell id="M_GYAB3L-xVHz7yTsTbz-36" value="" style="whiteSpace=wrap;html=1;aspect=fixed;shadow=1;dashed=1;" vertex="1" parent="1">
          <mxGeometry x="330" y="159" width="30" height="30" as="geometry" />
        </mxCell>
        <mxCell id="M_GYAB3L-xVHz7yTsTbz-37" value="" style="whiteSpace=wrap;html=1;aspect=fixed;shadow=1;dashed=1;" vertex="1" parent="1">
          <mxGeometry x="370" y="159" width="30" height="30" as="geometry" />
        </mxCell>
        <mxCell id="M_GYAB3L-xVHz7yTsTbz-38" value="" style="whiteSpace=wrap;html=1;aspect=fixed;shadow=1;dashed=1;" vertex="1" parent="1">
          <mxGeometry x="410" y="159" width="30" height="30" as="geometry" />
        </mxCell>
        <mxCell id="M_GYAB3L-xVHz7yTsTbz-39" value="" style="whiteSpace=wrap;html=1;aspect=fixed;shadow=1;" vertex="1" parent="1">
          <mxGeometry x="330" y="305" width="30" height="30" as="geometry" />
        </mxCell>
        <mxCell id="M_GYAB3L-xVHz7yTsTbz-40" value="" style="whiteSpace=wrap;html=1;aspect=fixed;shadow=1;" vertex="1" parent="1">
          <mxGeometry x="370" y="305" width="30" height="30" as="geometry" />
        </mxCell>
        <mxCell id="M_GYAB3L-xVHz7yTsTbz-41" value="" style="whiteSpace=wrap;html=1;aspect=fixed;shadow=1;" vertex="1" parent="1">
          <mxGeometry x="410" y="305" width="30" height="30" as="geometry" />
        </mxCell>
        <mxCell id="M_GYAB3L-xVHz7yTsTbz-42" value="" style="whiteSpace=wrap;html=1;aspect=fixed;shadow=1;dashed=1;" vertex="1" parent="1">
          <mxGeometry x="330" y="342" width="30" height="30" as="geometry" />
        </mxCell>
        <mxCell id="M_GYAB3L-xVHz7yTsTbz-43" value="" style="whiteSpace=wrap;html=1;aspect=fixed;shadow=1;dashed=1;" vertex="1" parent="1">
          <mxGeometry x="370" y="342" width="30" height="30" as="geometry" />
        </mxCell>
        <mxCell id="M_GYAB3L-xVHz7yTsTbz-44" value="" style="whiteSpace=wrap;html=1;aspect=fixed;shadow=1;dashed=1;" vertex="1" parent="1">
          <mxGeometry x="410" y="342" width="30" height="30" as="geometry" />
        </mxCell>
        <mxCell id="M_GYAB3L-xVHz7yTsTbz-45" value="" style="whiteSpace=wrap;html=1;aspect=fixed;shadow=1;" vertex="1" parent="1">
          <mxGeometry x="450" y="270" width="30" height="30" as="geometry" />
        </mxCell>
        <mxCell id="M_GYAB3L-xVHz7yTsTbz-46" value="" style="whiteSpace=wrap;html=1;aspect=fixed;shadow=1;dashed=1;" vertex="1" parent="1">
          <mxGeometry x="450" y="343" width="30" height="30" as="geometry" />
        </mxCell>
        <mxCell id="M_GYAB3L-xVHz7yTsTbz-47" value="" style="whiteSpace=wrap;html=1;aspect=fixed;shadow=1;" vertex="1" parent="1">
          <mxGeometry x="450" y="306" width="30" height="30" as="geometry" />
        </mxCell>
        <mxCell id="M_GYAB3L-xVHz7yTsTbz-48" value="" style="whiteSpace=wrap;html=1;aspect=fixed;shadow=1;dashed=1;" vertex="1" parent="1">
          <mxGeometry x="490" y="160" width="30" height="30" as="geometry" />
        </mxCell>
        <mxCell id="M_GYAB3L-xVHz7yTsTbz-49" value="" style="whiteSpace=wrap;html=1;aspect=fixed;shadow=1;dashed=1;" vertex="1" parent="1">
          <mxGeometry x="490" y="233" width="30" height="30" as="geometry" />
        </mxCell>
        <mxCell id="M_GYAB3L-xVHz7yTsTbz-50" value="" style="whiteSpace=wrap;html=1;aspect=fixed;shadow=1;dashed=1;" vertex="1" parent="1">
          <mxGeometry x="490" y="196" width="30" height="30" as="geometry" />
        </mxCell>
        <mxCell id="M_GYAB3L-xVHz7yTsTbz-51" value="" style="whiteSpace=wrap;html=1;aspect=fixed;shadow=1;dashed=1;" vertex="1" parent="1">
          <mxGeometry x="490" y="270" width="30" height="30" as="geometry" />
        </mxCell>
        <mxCell id="M_GYAB3L-xVHz7yTsTbz-52" value="" style="whiteSpace=wrap;html=1;aspect=fixed;shadow=1;dashed=1;" vertex="1" parent="1">
          <mxGeometry x="490" y="343" width="30" height="30" as="geometry" />
        </mxCell>
        <mxCell id="M_GYAB3L-xVHz7yTsTbz-53" value="" style="whiteSpace=wrap;html=1;aspect=fixed;shadow=1;dashed=1;" vertex="1" parent="1">
          <mxGeometry x="490" y="306" width="30" height="30" as="geometry" />
        </mxCell>
        <mxCell id="M_GYAB3L-xVHz7yTsTbz-54" value="" style="whiteSpace=wrap;html=1;aspect=fixed;shadow=1;dashed=1;dashPattern=8 8;fillColor=#ffe6cc;strokeColor=#d79b00;gradientColor=none;opacity=50;" vertex="1" parent="1">
          <mxGeometry x="330" y="195" width="30" height="30" as="geometry" />
        </mxCell>
        <mxCell id="M_GYAB3L-xVHz7yTsTbz-55" value="" style="whiteSpace=wrap;html=1;aspect=fixed;shadow=1;dashed=1;dashPattern=8 8;fillColor=#ffe6cc;strokeColor=#d79b00;gradientColor=none;opacity=50;" vertex="1" parent="1">
          <mxGeometry x="330" y="231" width="30" height="30" as="geometry" />
        </mxCell>
        <mxCell id="M_GYAB3L-xVHz7yTsTbz-56" value="" style="whiteSpace=wrap;html=1;aspect=fixed;shadow=1;dashed=1;dashPattern=8 8;fillColor=#ffe6cc;strokeColor=#d79b00;gradientColor=none;opacity=50;" vertex="1" parent="1">
          <mxGeometry x="370" y="195" width="30" height="30" as="geometry" />
        </mxCell>
        <mxCell id="M_GYAB3L-xVHz7yTsTbz-57" value="" style="whiteSpace=wrap;html=1;aspect=fixed;shadow=1;dashed=1;dashPattern=8 8;fillColor=#ffe6cc;strokeColor=#d79b00;gradientColor=none;opacity=50;" vertex="1" parent="1">
          <mxGeometry x="370" y="231" width="30" height="30" as="geometry" />
        </mxCell>
        <mxCell id="M_GYAB3L-xVHz7yTsTbz-58" value="" style="whiteSpace=wrap;html=1;aspect=fixed;shadow=1;dashed=1;dashPattern=8 8;fillColor=#ffe6cc;strokeColor=#d79b00;gradientColor=none;opacity=50;" vertex="1" parent="1">
          <mxGeometry x="290" y="158" width="30" height="30" as="geometry" />
        </mxCell>
        <mxCell id="M_GYAB3L-xVHz7yTsTbz-59" value="" style="whiteSpace=wrap;html=1;aspect=fixed;shadow=1;dashed=1;dashPattern=8 8;fillColor=#ffe6cc;strokeColor=#d79b00;gradientColor=none;opacity=50;" vertex="1" parent="1">
          <mxGeometry x="290" y="231" width="30" height="30" as="geometry" />
        </mxCell>
        <mxCell id="M_GYAB3L-xVHz7yTsTbz-60" value="" style="whiteSpace=wrap;html=1;aspect=fixed;shadow=1;dashed=1;dashPattern=8 8;fillColor=#ffe6cc;strokeColor=#d79b00;gradientColor=none;opacity=50;" vertex="1" parent="1">
          <mxGeometry x="290" y="194" width="30" height="30" as="geometry" />
        </mxCell>
        <mxCell id="M_GYAB3L-xVHz7yTsTbz-61" value="" style="whiteSpace=wrap;html=1;aspect=fixed;shadow=1;dashed=1;dashPattern=8 8;fillColor=#ffe6cc;strokeColor=#d79b00;gradientColor=none;opacity=50;" vertex="1" parent="1">
          <mxGeometry x="330" y="158" width="30" height="30" as="geometry" />
        </mxCell>
        <mxCell id="M_GYAB3L-xVHz7yTsTbz-62" value="" style="whiteSpace=wrap;html=1;aspect=fixed;shadow=1;dashed=1;dashPattern=8 8;fillColor=#ffe6cc;strokeColor=#d79b00;gradientColor=none;opacity=50;" vertex="1" parent="1">
          <mxGeometry x="370" y="158" width="30" height="30" as="geometry" />
        </mxCell>
        <mxCell id="M_GYAB3L-xVHz7yTsTbz-64" value="&lt;font style=&quot;font-size: 18px;&quot;&gt;Conv&lt;br&gt;Projection&lt;/font&gt;" style="text;html=1;align=center;verticalAlign=middle;resizable=0;points=[];autosize=1;strokeColor=none;fillColor=none;" vertex="1" parent="1">
          <mxGeometry x="297.5" y="96.5" width="100" height="60" as="geometry" />
        </mxCell>
        <mxCell id="M_GYAB3L-xVHz7yTsTbz-65" value="" style="endArrow=classic;html=1;rounded=0;" edge="1" parent="1">
          <mxGeometry width="50" height="50" relative="1" as="geometry">
            <mxPoint x="540" y="220" as="sourcePoint" />
            <mxPoint x="690" y="120" as="targetPoint" />
          </mxGeometry>
        </mxCell>
        <mxCell id="M_GYAB3L-xVHz7yTsTbz-67" value="&lt;font style=&quot;font-size: 14px;&quot;&gt;stride=1&lt;/font&gt;" style="text;html=1;align=center;verticalAlign=middle;resizable=0;points=[];autosize=1;strokeColor=none;fillColor=none;rotation=-35;" vertex="1" parent="1">
          <mxGeometry x="590" y="173" width="70" height="30" as="geometry" />
        </mxCell>
        <mxCell id="M_GYAB3L-xVHz7yTsTbz-69" value="&lt;font style=&quot;font-size: 14px;&quot;&gt;DepthWiseConv&lt;/font&gt;" style="text;html=1;align=center;verticalAlign=middle;resizable=0;points=[];autosize=1;strokeColor=none;fillColor=none;rotation=-35;" vertex="1" parent="1">
          <mxGeometry x="545" y="143" width="120" height="30" as="geometry" />
        </mxCell>
        <mxCell id="M_GYAB3L-xVHz7yTsTbz-70" value="" style="whiteSpace=wrap;html=1;aspect=fixed;shadow=1;" vertex="1" parent="1">
          <mxGeometry x="700" y="40" width="30" height="30" as="geometry" />
        </mxCell>
        <mxCell id="M_GYAB3L-xVHz7yTsTbz-71" value="" style="whiteSpace=wrap;html=1;aspect=fixed;shadow=1;" vertex="1" parent="1">
          <mxGeometry x="700" y="76" width="30" height="30" as="geometry" />
        </mxCell>
        <mxCell id="M_GYAB3L-xVHz7yTsTbz-72" value="" style="whiteSpace=wrap;html=1;aspect=fixed;shadow=1;" vertex="1" parent="1">
          <mxGeometry x="740" y="41" width="30" height="30" as="geometry" />
        </mxCell>
        <mxCell id="M_GYAB3L-xVHz7yTsTbz-73" value="" style="whiteSpace=wrap;html=1;aspect=fixed;shadow=1;" vertex="1" parent="1">
          <mxGeometry x="740" y="77" width="30" height="30" as="geometry" />
        </mxCell>
        <mxCell id="M_GYAB3L-xVHz7yTsTbz-82" value="" style="whiteSpace=wrap;html=1;aspect=fixed;shadow=1;" vertex="1" parent="1">
          <mxGeometry x="700" y="111.5" width="30" height="30" as="geometry" />
        </mxCell>
        <mxCell id="M_GYAB3L-xVHz7yTsTbz-83" value="" style="whiteSpace=wrap;html=1;aspect=fixed;shadow=1;" vertex="1" parent="1">
          <mxGeometry x="700" y="147.5" width="30" height="30" as="geometry" />
        </mxCell>
        <mxCell id="M_GYAB3L-xVHz7yTsTbz-84" value="" style="whiteSpace=wrap;html=1;aspect=fixed;shadow=1;" vertex="1" parent="1">
          <mxGeometry x="740" y="112.5" width="30" height="30" as="geometry" />
        </mxCell>
        <mxCell id="M_GYAB3L-xVHz7yTsTbz-85" value="" style="whiteSpace=wrap;html=1;aspect=fixed;shadow=1;" vertex="1" parent="1">
          <mxGeometry x="740" y="148.5" width="30" height="30" as="geometry" />
        </mxCell>
        <mxCell id="M_GYAB3L-xVHz7yTsTbz-86" value="" style="whiteSpace=wrap;html=1;aspect=fixed;shadow=1;" vertex="1" parent="1">
          <mxGeometry x="780" y="41" width="30" height="30" as="geometry" />
        </mxCell>
        <mxCell id="M_GYAB3L-xVHz7yTsTbz-87" value="" style="whiteSpace=wrap;html=1;aspect=fixed;shadow=1;" vertex="1" parent="1">
          <mxGeometry x="780" y="77" width="30" height="30" as="geometry" />
        </mxCell>
        <mxCell id="M_GYAB3L-xVHz7yTsTbz-88" value="" style="whiteSpace=wrap;html=1;aspect=fixed;shadow=1;" vertex="1" parent="1">
          <mxGeometry x="820" y="42" width="30" height="30" as="geometry" />
        </mxCell>
        <mxCell id="M_GYAB3L-xVHz7yTsTbz-89" value="" style="whiteSpace=wrap;html=1;aspect=fixed;shadow=1;" vertex="1" parent="1">
          <mxGeometry x="820" y="78" width="30" height="30" as="geometry" />
        </mxCell>
        <mxCell id="M_GYAB3L-xVHz7yTsTbz-90" value="" style="whiteSpace=wrap;html=1;aspect=fixed;shadow=1;" vertex="1" parent="1">
          <mxGeometry x="780" y="112.5" width="30" height="30" as="geometry" />
        </mxCell>
        <mxCell id="M_GYAB3L-xVHz7yTsTbz-91" value="" style="whiteSpace=wrap;html=1;aspect=fixed;shadow=1;" vertex="1" parent="1">
          <mxGeometry x="780" y="148.5" width="30" height="30" as="geometry" />
        </mxCell>
        <mxCell id="M_GYAB3L-xVHz7yTsTbz-92" value="" style="whiteSpace=wrap;html=1;aspect=fixed;shadow=1;" vertex="1" parent="1">
          <mxGeometry x="820" y="113.5" width="30" height="30" as="geometry" />
        </mxCell>
        <mxCell id="M_GYAB3L-xVHz7yTsTbz-93" value="" style="whiteSpace=wrap;html=1;aspect=fixed;shadow=1;" vertex="1" parent="1">
          <mxGeometry x="820" y="149.5" width="30" height="30" as="geometry" />
        </mxCell>
        <mxCell id="M_GYAB3L-xVHz7yTsTbz-94" value="&lt;font style=&quot;font-size: 18px;&quot;&gt;Query&lt;/font&gt;" style="text;html=1;align=center;verticalAlign=middle;resizable=0;points=[];autosize=1;strokeColor=none;fillColor=none;" vertex="1" parent="1">
          <mxGeometry x="740" width="70" height="40" as="geometry" />
        </mxCell>
        <mxCell id="M_GYAB3L-xVHz7yTsTbz-95" value="" style="endArrow=classic;html=1;rounded=0;" edge="1" parent="1">
          <mxGeometry width="50" height="50" relative="1" as="geometry">
            <mxPoint x="540" y="270" as="sourcePoint" />
            <mxPoint x="670" y="360" as="targetPoint" />
          </mxGeometry>
        </mxCell>
        <mxCell id="M_GYAB3L-xVHz7yTsTbz-96" value="&lt;font style=&quot;font-size: 14px;&quot;&gt;DepthWiseConv&lt;/font&gt;" style="text;html=1;align=center;verticalAlign=middle;resizable=0;points=[];autosize=1;strokeColor=none;fillColor=none;rotation=35;" vertex="1" parent="1">
          <mxGeometry x="545" y="280" width="120" height="30" as="geometry" />
        </mxCell>
        <mxCell id="M_GYAB3L-xVHz7yTsTbz-97" value="&lt;font style=&quot;font-size: 14px;&quot;&gt;stride=2&lt;br&gt;dim x 2&lt;br&gt;&lt;/font&gt;" style="text;html=1;align=center;verticalAlign=middle;resizable=0;points=[];autosize=1;strokeColor=none;fillColor=none;rotation=35;" vertex="1" parent="1">
          <mxGeometry x="550" y="304.5" width="70" height="50" as="geometry" />
        </mxCell>
        <mxCell id="M_GYAB3L-xVHz7yTsTbz-106" value="" style="whiteSpace=wrap;html=1;aspect=fixed;shadow=1;opacity=50;" vertex="1" parent="1">
          <mxGeometry x="730" y="329" width="30" height="30" as="geometry" />
        </mxCell>
        <mxCell id="M_GYAB3L-xVHz7yTsTbz-107" value="" style="whiteSpace=wrap;html=1;aspect=fixed;shadow=1;opacity=50;" vertex="1" parent="1">
          <mxGeometry x="730" y="365" width="30" height="30" as="geometry" />
        </mxCell>
        <mxCell id="M_GYAB3L-xVHz7yTsTbz-108" value="" style="whiteSpace=wrap;html=1;aspect=fixed;shadow=1;opacity=50;" vertex="1" parent="1">
          <mxGeometry x="770" y="330" width="30" height="30" as="geometry" />
        </mxCell>
        <mxCell id="M_GYAB3L-xVHz7yTsTbz-109" value="" style="whiteSpace=wrap;html=1;aspect=fixed;shadow=1;opacity=50;" vertex="1" parent="1">
          <mxGeometry x="770" y="366" width="30" height="30" as="geometry" />
        </mxCell>
        <mxCell id="M_GYAB3L-xVHz7yTsTbz-110" value="" style="whiteSpace=wrap;html=1;aspect=fixed;shadow=1;" vertex="1" parent="1">
          <mxGeometry x="740" y="340" width="30" height="30" as="geometry" />
        </mxCell>
        <mxCell id="M_GYAB3L-xVHz7yTsTbz-111" value="" style="whiteSpace=wrap;html=1;aspect=fixed;shadow=1;" vertex="1" parent="1">
          <mxGeometry x="740" y="376" width="30" height="30" as="geometry" />
        </mxCell>
        <mxCell id="M_GYAB3L-xVHz7yTsTbz-112" value="" style="whiteSpace=wrap;html=1;aspect=fixed;shadow=1;" vertex="1" parent="1">
          <mxGeometry x="780" y="341" width="30" height="30" as="geometry" />
        </mxCell>
        <mxCell id="M_GYAB3L-xVHz7yTsTbz-113" value="" style="whiteSpace=wrap;html=1;aspect=fixed;shadow=1;" vertex="1" parent="1">
          <mxGeometry x="780" y="377" width="30" height="30" as="geometry" />
        </mxCell>
        <mxCell id="M_GYAB3L-xVHz7yTsTbz-114" value="&lt;font style=&quot;font-size: 18px;&quot;&gt;Locally Squeezed&lt;br&gt;Key-Value&lt;/font&gt;" style="text;html=1;align=center;verticalAlign=middle;resizable=0;points=[];autosize=1;strokeColor=none;fillColor=none;" vertex="1" parent="1">
          <mxGeometry x="687" y="250" width="170" height="60" as="geometry" />
        </mxCell>
        <mxCell id="M_GYAB3L-xVHz7yTsTbz-115" value="" style="endArrow=classic;html=1;rounded=0;" edge="1" parent="1">
          <mxGeometry width="50" height="50" relative="1" as="geometry">
            <mxPoint x="840" y="360" as="sourcePoint" />
            <mxPoint x="890" y="310" as="targetPoint" />
          </mxGeometry>
        </mxCell>
        <mxCell id="M_GYAB3L-xVHz7yTsTbz-116" value="" style="endArrow=classic;html=1;rounded=0;" edge="1" parent="1">
          <mxGeometry width="50" height="50" relative="1" as="geometry">
            <mxPoint x="840" y="390" as="sourcePoint" />
            <mxPoint x="890" y="440" as="targetPoint" />
          </mxGeometry>
        </mxCell>
        <mxCell id="M_GYAB3L-xVHz7yTsTbz-117" value="chunk" style="text;html=1;align=center;verticalAlign=middle;resizable=0;points=[];autosize=1;strokeColor=none;fillColor=none;rotation=-45;" vertex="1" parent="1">
          <mxGeometry x="820" y="312" width="60" height="30" as="geometry" />
        </mxCell>
        <mxCell id="M_GYAB3L-xVHz7yTsTbz-118" value="chunk" style="text;html=1;align=center;verticalAlign=middle;resizable=0;points=[];autosize=1;strokeColor=none;fillColor=none;rotation=45;" vertex="1" parent="1">
          <mxGeometry x="820" y="407" width="60" height="30" as="geometry" />
        </mxCell>
        <mxCell id="M_GYAB3L-xVHz7yTsTbz-120" value="" style="whiteSpace=wrap;html=1;aspect=fixed;shadow=1;" vertex="1" parent="1">
          <mxGeometry x="910" y="261" width="30" height="30" as="geometry" />
        </mxCell>
        <mxCell id="M_GYAB3L-xVHz7yTsTbz-121" value="" style="whiteSpace=wrap;html=1;aspect=fixed;shadow=1;" vertex="1" parent="1">
          <mxGeometry x="910" y="297" width="30" height="30" as="geometry" />
        </mxCell>
        <mxCell id="M_GYAB3L-xVHz7yTsTbz-122" value="" style="whiteSpace=wrap;html=1;aspect=fixed;shadow=1;" vertex="1" parent="1">
          <mxGeometry x="950" y="262" width="30" height="30" as="geometry" />
        </mxCell>
        <mxCell id="M_GYAB3L-xVHz7yTsTbz-123" value="" style="whiteSpace=wrap;html=1;aspect=fixed;shadow=1;" vertex="1" parent="1">
          <mxGeometry x="950" y="298" width="30" height="30" as="geometry" />
        </mxCell>
        <mxCell id="M_GYAB3L-xVHz7yTsTbz-124" value="" style="whiteSpace=wrap;html=1;aspect=fixed;shadow=1;" vertex="1" parent="1">
          <mxGeometry x="910" y="395" width="30" height="30" as="geometry" />
        </mxCell>
        <mxCell id="M_GYAB3L-xVHz7yTsTbz-125" value="" style="whiteSpace=wrap;html=1;aspect=fixed;shadow=1;" vertex="1" parent="1">
          <mxGeometry x="910" y="431" width="30" height="30" as="geometry" />
        </mxCell>
        <mxCell id="M_GYAB3L-xVHz7yTsTbz-126" value="" style="whiteSpace=wrap;html=1;aspect=fixed;shadow=1;" vertex="1" parent="1">
          <mxGeometry x="950" y="396" width="30" height="30" as="geometry" />
        </mxCell>
        <mxCell id="M_GYAB3L-xVHz7yTsTbz-127" value="" style="whiteSpace=wrap;html=1;aspect=fixed;shadow=1;" vertex="1" parent="1">
          <mxGeometry x="950" y="432" width="30" height="30" as="geometry" />
        </mxCell>
        <mxCell id="M_GYAB3L-xVHz7yTsTbz-128" value="&lt;font style=&quot;font-size: 18px;&quot;&gt;Key&lt;/font&gt;" style="text;html=1;align=center;verticalAlign=middle;resizable=0;points=[];autosize=1;strokeColor=none;fillColor=none;" vertex="1" parent="1">
          <mxGeometry x="915" y="213" width="50" height="40" as="geometry" />
        </mxCell>
        <mxCell id="M_GYAB3L-xVHz7yTsTbz-129" value="&lt;font style=&quot;font-size: 18px;&quot;&gt;Value&lt;/font&gt;" style="text;html=1;align=center;verticalAlign=middle;resizable=0;points=[];autosize=1;strokeColor=none;fillColor=none;" vertex="1" parent="1">
          <mxGeometry x="905" y="348" width="70" height="40" as="geometry" />
        </mxCell>
      </root>
    </mxGraphModel>
  </diagram>
</mxfile>
